<?xml version="1.0" standalone="no"?>
<!DOCTYPE svg PUBLIC "-//W3C//DTD SVG 20010904//EN"
 "http://www.w3.org/TR/2001/REC-SVG-20010904/DTD/svg10.dtd">
<svg version="1.0" xmlns="http://www.w3.org/2000/svg"
 width="4268.000000pt" height="4268.000000pt" viewBox="0 0 4268.000000 4268.000000"
 preserveAspectRatio="xMidYMid meet">
<metadata>
Created by potrace 1.14, written by Peter Selinger 2001-2017
</metadata>
<g transform="translate(0.000000,4268.000000) scale(0.100000,-0.100000)"
fill="#000000" stroke="none">
<path d="M5540 30531 c0 -5 1422 -4034 3161 -8953 1738 -4919 3199 -9054 3247
-9190 l87 -248 2138 0 c1175 0 2137 1 2137 3 0 1 349 988 774 2192 l773 2190
3456 3 3455 2 15 -42 c8 -24 346 -992 752 -2153 405 -1160 744 -2129 752
-2152 l15 -43 2193 0 2192 0 16 43 c38 98 6447 18342 6447 18349 0 4 -982 8
-2183 8 l-2183 0 -2069 -5852 c-1138 -3219 -2080 -5886 -2095 -5926 l-27 -73
-525 1528 -526 1528 555 5 555 5 344 839 c189 461 346 847 349 857 6 18 -26
19 -1196 21 l-1203 3 -1215 3533 -1216 3532 -3179 -2 -3178 -3 -1234 -3530
c-679 -1941 -1234 -3531 -1234 -3532 0 -2 -532 -3 -1183 -3 -651 0 -1186 -2
-1189 -5 -2 -3 127 -389 287 -857 l292 -853 590 -3 590 -2 -132 -368 c-528
-1464 -781 -2168 -938 -2606 -9 -25 -70 149 -564 1600 -305 896 -666 1958
-803 2359 -136 402 -790 2322 -1452 4267 l-1203 3538 -2222 0 c-1355 0 -2223
-4 -2223 -9z m16302 -5621 c270 -773 493 -1413 496 -1422 4 -17 -49 -18 -1012
-18 -559 0 -1016 1 -1016 3 0 6 1000 2843 1011 2867 l11 25 10 -25 c5 -14 230
-657 500 -1430z m1751 -5012 c355 -1019 645 -1853 643 -1855 -1 -2 -1317 -2
-2923 -1 l-2920 3 653 1850 c359 1018 654 1851 654 1853 0 1 730 2 1623 2
l1623 0 647 -1852z"/>
<path d="M21195 20654 c-328 -53 -580 -293 -641 -610 -78 -412 199 -813 611
-885 95 -16 262 -6 350 21 199 62 371 209 460 394 133 276 83 614 -123 837
-144 155 -317 236 -527 244 -55 2 -113 1 -130 -1z"/>
</g>
</svg>
